<?xml version="1.0" encoding="utf-8"?>
<!-- Generator: Adobe Illustrator 22.1.0, SVG Export Plug-In . SVG Version: 6.00 Build 0)  -->
<svg version="1.1" xmlns="http://www.w3.org/2000/svg" xmlns:xlink="http://www.w3.org/1999/xlink" x="0px" y="0px"
	 viewBox="0 0 279 633" style="enable-background:new 0 0 279 633;" xml:space="preserve">
<style type="text/css">
	.st0{fill:#B3212C;stroke:#B3212C;stroke-width:5;stroke-miterlimit:10;}
	.st1{fill:#E5E5E5;}
	.st2{fill:#3F3F3F;}
	.st3{font-family:'Metropolis-SemiBold';}
	.st4{font-size:17.4811px;}
	.st5{font-size:13.1108px;}
	.st6{font-size:10.9257px;}
	.st7{font-size:8px;}
	.st8{font-size:9px;}
	.st9{font-size:6px;}
</style>
<g id="lines">
	<g>
		
			<rect x="105.4" y="181.6" transform="matrix(0.6274 -0.7787 0.7787 0.6274 -153.8249 175.5784)" class="st0" width="2.4" height="133.8"/>
	</g>
	<g>
		
			<rect x="-9.5" y="125.7" transform="matrix(0.2823 -0.9593 0.9593 0.2823 -69.1063 161.4485)" class="st0" width="165.6" height="2.4"/>
	</g>
	<g>
		
			<rect x="50.5" y="173.5" transform="matrix(0.9278 -0.373 0.373 0.9278 -55.3017 63.451)" class="st0" width="171.6" height="2.4"/>
	</g>
	<g>
		
			<rect x="109.3" y="216.8" transform="matrix(0.3668 -0.9303 0.9303 0.3668 -84.2449 312.2434)" class="st0" width="155.9" height="2.4"/>
	</g>
	<g>
		
			<rect x="194.6" y="278.5" transform="matrix(0.8885 -0.4589 0.4589 0.8885 -142.9823 129.9206)" class="st0" width="2.4" height="161.3"/>
	</g>
	<g>
		
			<rect x="24.1" y="366.3" transform="matrix(0.507 -0.8619 0.8619 0.507 -260.8588 278.8808)" class="st0" width="178.6" height="2.4"/>
	</g>
	<g>
		
			<rect x="124" y="423.7" transform="matrix(0.7672 -0.6414 0.6414 0.7672 -299.7841 199.7202)" class="st0" width="2.4" height="178.1"/>
	</g>
</g>
<g id="circles">
	<g id="visual-effects-m">
		
			<ellipse transform="matrix(0.7071 -0.7071 0.7071 0.7071 -357.5262 299.1581)" class="st1" cx="182.4" cy="581.2" rx="35.3" ry="35.3"/>
	</g>
	<g id="website-design-m">
		<ellipse transform="matrix(0.738 -0.6748 0.6748 0.738 -6.6869 77.6996)" class="st1" cx="96.7" cy="47.5" rx="28.4" ry="28.4"/>
	</g>
	<g id="motion-graphics-m">
		
			<ellipse transform="matrix(0.1877 -0.9822 0.9822 0.1877 -236.3668 573.3231)" class="st1" cx="228.4" cy="429.6" rx="41.8" ry="41.8"/>
	</g>
	<g id="photography-m">
		
			<ellipse transform="matrix(0.7071 -0.7071 0.7071 0.7071 -160.9304 204.0259)" class="st1" cx="165.8" cy="296.3" rx="50.3" ry="50.3"/>
	</g>
	<g id="videography-m">
		
			<ellipse transform="matrix(0.7071 -0.7071 0.7071 0.7071 -287.4488 189.6539)" class="st1" cx="85.2" cy="441.8" rx="74.8" ry="74.8"/>
	</g>
	<g id="social-media-m">
		
			<ellipse transform="matrix(0.2291 -0.9734 0.9734 0.2291 -162.8485 207.0811)" class="st1" cx="49.3" cy="206.4" rx="42.3" ry="42.3"/>
	</g>
	<g id="graphic-design-m">
		
			<ellipse transform="matrix(0.8889 -0.4581 0.4581 0.8889 -43.1891 114.8334)" class="st1" cx="215.2" cy="146.5" rx="38" ry="38"/>
	</g>
	<text id="Videography-m" transform="matrix(1 0 0 1 31.3358 447.2184)" class="st2 st3 st4">Videography</text>
	<text id="Photography-m" transform="matrix(1 0 0 1 123.881 302.144)" class="st2 st3 st5">Photography</text>
	<text id="Social_Media-m" transform="matrix(1 0 0 1 16.1286 211.6527)" class="st2 st3 st6">Social Media</text>
	<text id="Graphic_Design-m" transform="matrix(1 0 0 1 185.6989 149.5892)" class="st2 st3 st7">Graphic Design</text>
	<text id="Motion_Graphics-m" transform="matrix(1 0 0 1 193.3746 434.8237)" class="st2 st3 st8">Motion Graphics</text>
	<text id="Website_Design-m" transform="matrix(1 0 0 1 73.0014 50.7745)" class="st2 st3 st9">Website Design</text>
	<text id="Visual_Effects-m" transform="matrix(1 0 0 1 156.8507 585.7412)" class="st2 st3 st7">Visual Effects</text>
</g>
</svg>
