<?xml version="1.0" encoding="utf-8"?>
<!-- Generator: Adobe Illustrator 22.1.0, SVG Export Plug-In . SVG Version: 6.00 Build 0)  -->
<svg version="1.1" id="Layer_1" xmlns="http://www.w3.org/2000/svg" xmlns:xlink="http://www.w3.org/1999/xlink" x="0px" y="0px"
	 viewBox="0 0 623 282" style="enable-background:new 0 0 623 282;" xml:space="preserve">
<style type="text/css">
	.st0{fill:#B3212C;stroke:#B3212C;stroke-width:5;stroke-miterlimit:10;}
	.st1{fill:#E5E5E5;}
	.st2{fill:#3F3F3F;}
	.st3{font-family:'Metropolis-SemiBold';}
	.st4{font-size:17.4811px;}
	.st5{font-size:13.1108px;}
	.st6{font-size:10.9257px;}
	.st7{font-size:8px;}
	.st8{font-size:9px;}
	.st9{font-size:6px;}
</style>
<g id="lines">
	<g>
		
			<rect x="315" y="110.5" transform="matrix(0.6274 -0.7787 0.7787 0.6274 55.3522 339.0175)" class="st0" width="133.8" height="2.4"/>
	</g>
	<g>
		
			<rect x="502.3" y="-4.3" transform="matrix(0.2823 -0.9593 0.9593 0.2823 286.0887 539.334)" class="st0" width="2.4" height="165.6"/>
	</g>
	<g>
		
			<rect x="454.6" y="55.6" transform="matrix(0.9278 -0.373 0.373 0.9278 -19.8401 180.2129)" class="st0" width="2.4" height="171.6"/>
	</g>
	<g>
		
			<rect x="411.2" y="114.4" transform="matrix(0.3668 -0.9303 0.9303 0.3668 82.1955 505.4931)" class="st0" width="2.4" height="155.9"/>
	</g>
	<g>
		
			<rect x="190.6" y="199.7" transform="matrix(0.8885 -0.4589 0.4589 0.8885 -61.9539 146.8787)" class="st0" width="161.3" height="2.4"/>
	</g>
	<g>
		
			<rect x="261.7" y="29.2" transform="matrix(0.507 -0.8619 0.8619 0.507 27.4716 284.9602)" class="st0" width="2.4" height="178.6"/>
	</g>
	<g>
		
			<rect x="28.5" y="129.2" transform="matrix(0.7672 -0.6414 0.6414 0.7672 -56.2419 105.7477)" class="st0" width="178.1" height="2.4"/>
	</g>
</g>
<g id="circles">
	<g id="visual-effects-m">
		<ellipse class="st1" cx="49.3" cy="187.4" rx="35.3" ry="35.3"/>
	</g>
	<g id="website-design-m">
		
			<ellipse transform="matrix(0.7071 -0.7071 0.7071 0.7071 98.7873 442.0406)" class="st1" cx="583" cy="101.8" rx="28.4" ry="28.4"/>
	</g>
	<g id="motion-graphics-m">
		
			<ellipse transform="matrix(0.1877 -0.9822 0.9822 0.1877 -66.1991 386.9421)" class="st1" cx="200.8" cy="233.5" rx="41.8" ry="41.8"/>
	</g>
	<g id="photography-m">
		
			<ellipse transform="matrix(0.7071 -0.7071 0.7071 0.7071 -22.9437 286.3489)" class="st1" cx="334.2" cy="170.9" rx="50.3" ry="50.3"/>
	</g>
	<g id="videography-m">
		
			<ellipse transform="matrix(0.7071 -0.7071 0.7071 0.7071 -8.6191 159.818)" class="st1" cx="188.6" cy="90.3" rx="74.8" ry="74.8"/>
	</g>
	<g id="social-media-m">
		<ellipse class="st1" cx="424.1" cy="54.4" rx="42.3" ry="42.3"/>
	</g>
	<g id="graphic-design-m">
		<ellipse transform="matrix(0.8889 -0.4581 0.4581 0.8889 -47.1014 246.1749)" class="st1" cx="484" cy="220.2" rx="38" ry="38"/>
	</g>
	<text id="Videography-m" transform="matrix(1 0 0 1 132.4233 96.9721)" class="st2 st3 st4">Videography</text>
	<text id="Photography-m" transform="matrix(1 0 0 1 292.0319 174.5431)" class="st2 st3 st5">Photography</text>
	<text id="Social_Media-m" transform="matrix(1 0 0 1 390.3627 57.7313)" class="st2 st3 st6">Social Media</text>
	<text id="Graphic_Design-m" transform="matrix(1 0 0 1 454.3618 224.7313)" class="st2 st3 st7">Graphic Design</text>
	<text id="Motion_Graphics-m" transform="matrix(1 0 0 1 164.3624 237.7312)" class="st2 st3 st8">Motion Graphics</text>
	<text id="Website_Design-m" transform="matrix(1 0 0 1 560.3628 104.732)" class="st2 st3 st9">Website Design</text>
	<text id="Visual_Effects-m" transform="matrix(1 0 0 1 22.362 190.7314)" class="st2 st3 st7">Visual Effects</text>
</g>
</svg>
